<svg width="162" height="26" viewBox="0 0 162 26" fill="none" xmlns="http://www.w3.org/2000/svg">
<path d="M2.81598 1.51197H20.608C21.2906 1.51197 21.792 1.5973 22.112 1.76797C22.432 1.9173 22.6453 2.16264 22.752 2.50397C22.8586 2.8453 22.912 3.2933 22.912 3.84797C22.912 4.40263 22.8586 4.85063 22.752 5.19197C22.6453 5.51197 22.464 5.73597 22.208 5.86397C21.824 6.05597 21.28 6.15197 20.576 6.15197H14.464V22.248C14.464 22.7386 14.4426 23.1013 14.4 23.336C14.3786 23.5706 14.2826 23.848 14.112 24.168C13.9626 24.4666 13.6853 24.68 13.28 24.808C12.8746 24.936 12.3413 25 11.68 25C11.0186 25 10.4853 24.936 10.08 24.808C9.69598 24.68 9.41865 24.4666 9.24798 24.168C9.09865 23.848 9.00265 23.5706 8.95998 23.336C8.93865 23.08 8.92798 22.7066 8.92798 22.216V6.15197H2.78398C2.10131 6.15197 1.59998 6.0773 1.27998 5.92797C0.95998 5.7573 0.746647 5.5013 0.63998 5.15997C0.533314 4.81864 0.47998 4.37063 0.47998 3.81597C0.47998 3.2613 0.533314 2.82397 0.63998 2.50397C0.746647 2.16264 0.92798 1.92797 1.18398 1.79997C1.56798 1.60797 2.11198 1.51197 2.81598 1.51197Z" fill="white"/>
<path d="M32.2985 8.32797C32.7038 8.45597 33.0345 8.67997 33.2905 8.99997C33.5678 9.29864 33.7065 9.7893 33.7065 10.472C33.7065 11.1546 33.5038 11.9013 33.0985 12.712C32.6931 13.5226 32.1065 13.928 31.3385 13.928C30.9545 13.928 30.5811 13.8426 30.2185 13.672C29.8771 13.5013 29.4185 13.416 28.8425 13.416C28.2665 13.416 27.7225 13.6186 27.2105 14.024C26.7198 14.4293 26.4745 14.92 26.4745 15.496V22.216C26.4745 22.7066 26.4531 23.08 26.4105 23.336C26.3891 23.5706 26.2931 23.848 26.1225 24.168C25.8025 24.7226 24.9705 25 23.6265 25C22.6025 25 21.8665 24.8186 21.4185 24.456C21.0771 24.1573 20.8851 23.6986 20.8425 23.08C20.8425 22.8666 20.8425 22.5573 20.8425 22.152V10.92C20.8425 10.4293 20.8531 10.0666 20.8745 9.83197C20.9171 9.57597 21.0131 9.29864 21.1625 8.99997C21.4611 8.42397 22.2931 8.13597 23.6585 8.13597C24.9385 8.13597 25.7385 8.3813 26.0585 8.87197C26.2931 9.2133 26.4105 9.5653 26.4105 9.92797C26.5171 9.77864 26.6665 9.5973 26.8585 9.38397C27.0718 9.17064 27.5091 8.88264 28.1705 8.51997C28.8318 8.1573 29.4078 7.97597 29.8985 7.97597C30.4105 7.97597 30.8371 8.00797 31.1785 8.07197C31.5198 8.11464 31.8931 8.19997 32.2985 8.32797Z" fill="white"/>
<path d="M50.7547 14.568C50.7547 15.8693 50.4241 16.84 49.7627 17.48C49.1227 18.0986 48.4081 18.408 47.6187 18.408H40.0347C40.0347 19.0053 40.3867 19.5066 41.0907 19.912C41.7947 20.3173 42.4987 20.52 43.2027 20.52C44.4401 20.52 45.4107 20.392 46.1147 20.136L46.4667 20.008C46.9787 19.7733 47.4054 19.656 47.7467 19.656C48.4294 19.656 49.0161 20.136 49.5067 21.096C49.7841 21.672 49.9227 22.1626 49.9227 22.568C49.9227 24.4666 47.6507 25.416 43.1067 25.416C41.5281 25.416 40.1201 25.1493 38.8827 24.616C37.6667 24.0613 36.7174 23.336 36.0347 22.44C34.6907 20.712 34.0187 18.7813 34.0187 16.648C34.0187 13.96 34.8827 11.816 36.6107 10.216C38.3601 8.59464 40.5361 7.78397 43.1387 7.78397C46.1041 7.78397 48.2801 8.8293 49.6667 10.92C50.3921 12.0293 50.7547 13.2453 50.7547 14.568ZM44.0027 15.496C44.8134 15.496 45.2187 15.1546 45.2187 14.472C45.2187 13.9813 45.0267 13.5866 44.6427 13.288C44.2801 12.9893 43.7467 12.84 43.0427 12.84C42.3601 12.84 41.6774 13.128 40.9947 13.704C40.3121 14.2586 39.9707 14.856 39.9707 15.496H44.0027Z" fill="white"/>
<path d="M58.7305 19.336C59.4345 19.336 59.9571 19.5173 60.2985 19.88C60.6398 20.2426 60.8105 20.9893 60.8105 22.12C60.8105 23.2506 60.6291 24.008 60.2665 24.392C59.9038 24.7546 59.3811 24.936 58.6985 24.936C56.5438 24.936 55.0291 24.424 54.1545 23.4C53.2798 22.3546 52.8425 20.6266 52.8425 18.216V2.95197C52.8425 2.4613 52.8531 2.09864 52.8745 1.86397C52.9171 1.60797 53.0131 1.31997 53.1625 0.999968C53.4611 0.445302 54.2931 0.167969 55.6585 0.167969C56.9598 0.167969 57.7705 0.466635 58.0905 1.06397C58.2611 1.36264 58.3571 1.63997 58.3785 1.89597C58.4211 2.13063 58.4425 2.4933 58.4425 2.98397V18.344C58.4425 19.0053 58.5385 19.336 58.7305 19.336ZM67.0825 18.344C67.0825 18.7493 67.1678 19.016 67.3385 19.144C67.5091 19.272 67.9465 19.336 68.6505 19.336C69.3545 19.336 69.9412 19.5173 70.4105 19.88C70.8798 20.2426 71.1145 20.9893 71.1145 22.12C71.1145 23.2506 70.8585 24.008 70.3465 24.392C69.8558 24.7546 69.1625 24.936 68.2665 24.936C63.7438 24.936 61.4825 22.696 61.4825 18.216L61.4505 2.95197C61.4505 2.4613 61.4611 2.09864 61.4825 1.86397C61.5251 1.60797 61.6318 1.31997 61.8025 0.999968C62.1225 0.445302 62.9545 0.167969 64.2985 0.167969C65.5998 0.167969 66.4105 0.466635 66.7305 1.06397C66.9652 1.5333 67.0825 2.1733 67.0825 2.98397V18.344Z" fill="white"/>
<path d="M72.3937 16.584C72.3937 14.024 73.2897 11.912 75.0817 10.248C76.8737 8.58397 78.9217 7.75197 81.2257 7.75197C83.5297 7.75197 85.5671 8.58397 87.3377 10.248C89.1084 11.8906 89.9937 13.992 89.9937 16.552C89.9937 18.3226 89.5351 19.9013 88.6177 21.288C87.7004 22.6533 86.5804 23.6666 85.2577 24.328C83.9564 24.968 82.6017 25.288 81.1937 25.288C79.7857 25.288 78.4204 24.9466 77.0977 24.264C75.7751 23.56 74.6551 22.536 73.7377 21.192C72.8417 19.8266 72.3937 18.2906 72.3937 16.584ZM79.0817 18.888C79.7644 19.4 80.4577 19.656 81.1617 19.656C81.8657 19.656 82.5697 19.3893 83.2737 18.856C83.9777 18.3226 84.3297 17.5333 84.3297 16.488C84.3297 15.4426 83.9991 14.664 83.3377 14.152C82.6764 13.64 81.9617 13.384 81.1937 13.384C80.4257 13.384 79.7111 13.6506 79.0497 14.184C78.3884 14.7173 78.0577 15.5066 78.0577 16.552C78.0577 17.576 78.3991 18.3546 79.0817 18.888Z" fill="white"/>
<path d="M107.581 1.54397C108.072 1.54397 108.435 1.5653 108.669 1.60797C108.925 1.6293 109.203 1.7253 109.501 1.89597C109.821 2.06663 110.045 2.35463 110.173 2.75997C110.301 3.1653 110.365 3.7093 110.365 4.39197C110.365 5.07463 110.301 5.61863 110.173 6.02397C110.045 6.4293 109.821 6.7173 109.501 6.88797C109.181 7.0373 108.893 7.1333 108.637 7.17597C108.403 7.1973 108.029 7.20797 107.517 7.20797H97.7252V10.44H104.029C104.541 10.44 104.915 10.4613 105.149 10.504C105.405 10.5253 105.693 10.6213 106.013 10.792C106.568 11.112 106.845 11.9546 106.845 13.32C106.845 14.8133 106.44 15.6986 105.629 15.976C105.288 16.0826 104.744 16.136 103.997 16.136H97.7252V22.184C97.7252 22.696 97.7039 23.0693 97.6612 23.304C97.6399 23.5386 97.5439 23.816 97.3732 24.136C97.0746 24.712 96.2426 25 94.8772 25C93.3839 25 92.5092 24.5946 92.2532 23.784C92.1252 23.4426 92.0612 22.8986 92.0612 22.152V4.35997C92.0612 3.27197 92.2639 2.53597 92.6692 2.15197C93.0746 1.74663 93.8426 1.54397 94.9732 1.54397H107.581Z" fill="white"/>
<path d="M120.505 9.92797C120.633 8.7333 121.476 8.13597 123.033 8.13597C123.865 8.13597 124.484 8.19997 124.889 8.32797C125.295 8.45597 125.572 8.67997 125.721 8.99997C125.892 9.31997 125.988 9.60797 126.009 9.86397C126.052 10.0986 126.073 10.4613 126.073 10.952V22.152C126.073 22.6426 126.052 23.016 126.009 23.272C125.988 23.5066 125.903 23.784 125.753 24.104C125.455 24.6586 124.719 24.936 123.545 24.936C122.393 24.936 121.615 24.7973 121.209 24.52C120.825 24.2213 120.601 23.7946 120.537 23.24C119.748 24.3706 118.425 24.936 116.569 24.936C114.735 24.936 113.028 24.0933 111.449 22.408C109.871 20.7226 109.081 18.7706 109.081 16.552C109.081 14.312 109.871 12.36 111.449 10.696C113.049 9.01064 114.799 8.16797 116.697 8.16797C117.423 8.16797 118.084 8.29597 118.681 8.55197C119.279 8.80797 119.695 9.0533 119.929 9.28797C120.164 9.5013 120.356 9.71464 120.505 9.92797ZM114.681 16.584C114.681 17.288 114.959 17.928 115.513 18.504C116.068 19.0586 116.74 19.336 117.529 19.336C118.319 19.336 118.969 19.048 119.481 18.472C120.015 17.896 120.281 17.2666 120.281 16.584C120.281 15.88 120.025 15.2293 119.513 14.632C119.023 14.0346 118.351 13.736 117.497 13.736C116.665 13.736 115.983 14.0346 115.449 14.632C114.937 15.2293 114.681 15.88 114.681 16.584Z" fill="white"/>
<path d="M138.544 16.552L142.8 20.072C143.333 20.52 143.664 20.8613 143.792 21.096C143.941 21.3306 144.016 21.5546 144.016 21.768C144.016 22.28 143.685 22.9733 143.024 23.848C142.298 24.744 141.658 25.192 141.104 25.192C140.634 25.192 139.984 24.8826 139.152 24.264L138.832 24.04C138.341 23.6346 137.584 22.9306 136.56 21.928C135.536 20.904 134.757 20.1786 134.224 19.752V22.216C134.224 22.7066 134.202 23.08 134.16 23.336C134.138 23.5706 134.042 23.848 133.872 24.168C133.594 24.7226 132.773 25 131.408 25C130.064 25 129.242 24.712 128.944 24.136C128.794 23.816 128.698 23.5386 128.656 23.304C128.634 23.048 128.624 22.6746 128.624 22.184V3.01597C128.624 2.5253 128.634 2.16264 128.656 1.92797C128.698 1.67197 128.794 1.38397 128.944 1.06397C129.242 0.487968 130.074 0.199968 131.44 0.199968C132.464 0.199968 133.189 0.381302 133.616 0.743969C133.978 1.04264 134.17 1.51197 134.192 2.15197C134.213 2.34397 134.224 2.64263 134.224 3.04797V13.192C134.608 12.872 135.184 12.328 135.952 11.56C136.741 10.792 137.328 10.248 137.712 9.92797L138.096 9.67197C138.842 9.09597 139.482 8.80797 140.016 8.80797C140.549 8.80797 141.157 9.2453 141.84 10.12C142.544 10.9733 142.896 11.6453 142.896 12.136C142.896 12.6266 142.501 13.2026 141.712 13.864L138.544 16.552Z" fill="white"/>
<path d="M161.067 14.568C161.067 15.8693 160.737 16.84 160.075 17.48C159.435 18.0986 158.721 18.408 157.931 18.408H150.347C150.347 19.0053 150.699 19.5066 151.403 19.912C152.107 20.3173 152.811 20.52 153.515 20.52C154.753 20.52 155.723 20.392 156.427 20.136L156.779 20.008C157.291 19.7733 157.718 19.656 158.059 19.656C158.742 19.656 159.329 20.136 159.819 21.096C160.097 21.672 160.235 22.1626 160.235 22.568C160.235 24.4666 157.963 25.416 153.419 25.416C151.841 25.416 150.433 25.1493 149.195 24.616C147.979 24.0613 147.03 23.336 146.347 22.44C145.003 20.712 144.331 18.7813 144.331 16.648C144.331 13.96 145.195 11.816 146.923 10.216C148.673 8.59464 150.849 7.78397 153.451 7.78397C156.417 7.78397 158.593 8.8293 159.979 10.92C160.705 12.0293 161.067 13.2453 161.067 14.568ZM154.315 15.496C155.126 15.496 155.531 15.1546 155.531 14.472C155.531 13.9813 155.339 13.5866 154.955 13.288C154.593 12.9893 154.059 12.84 153.355 12.84C152.673 12.84 151.99 13.128 151.307 13.704C150.625 14.2586 150.283 14.856 150.283 15.496H154.315Z" fill="white"/>
</svg>
