<svg width="322" height="51" viewBox="0 0 322 51" fill="none" xmlns="http://www.w3.org/2000/svg">
<path d="M4.672 2.688H40.256C41.6213 2.688 42.624 2.85867 43.264 3.2C43.904 3.49867 44.3307 3.98933 44.544 4.672C44.7573 5.35467 44.864 6.25067 44.864 7.36C44.864 8.46933 44.7573 9.36533 44.544 10.048C44.3307 10.688 43.968 11.136 43.456 11.392C42.688 11.776 41.6 11.968 40.192 11.968H27.968V44.16C27.968 45.1413 27.9253 45.8667 27.84 46.336C27.7973 46.8053 27.6053 47.36 27.264 48C26.9653 48.5973 26.4107 49.024 25.6 49.28C24.7893 49.536 23.7227 49.664 22.4 49.664C21.0773 49.664 20.0107 49.536 19.2 49.28C18.432 49.024 17.8773 48.5973 17.536 48C17.2373 47.36 17.0453 46.8053 16.96 46.336C16.9173 45.824 16.896 45.0773 16.896 44.096V11.968H4.608C3.24267 11.968 2.24 11.8187 1.6 11.52C0.96 11.1787 0.533333 10.6667 0.32 9.984C0.106667 9.30133 0 8.40533 0 7.296C0 6.18667 0.106667 5.312 0.32 4.672C0.533333 3.98933 0.896 3.52 1.408 3.264C2.176 2.88 3.264 2.688 4.672 2.688Z" fill="#6C63FF"/>
<path d="M63.637 16.32C64.4477 16.576 65.109 17.024 65.621 17.664C66.1757 18.2613 66.453 19.2427 66.453 20.608C66.453 21.9733 66.0477 23.4667 65.237 25.088C64.4263 26.7093 63.253 27.52 61.717 27.52C60.949 27.52 60.2023 27.3493 59.477 27.008C58.7943 26.6667 57.877 26.496 56.725 26.496C55.573 26.496 54.485 26.9013 53.461 27.712C52.4797 28.5227 51.989 29.504 51.989 30.656V44.096C51.989 45.0773 51.9463 45.824 51.861 46.336C51.8183 46.8053 51.6263 47.36 51.285 48C50.645 49.1093 48.981 49.664 46.293 49.664C44.245 49.664 42.773 49.3013 41.877 48.576C41.1943 47.9787 40.8103 47.0613 40.725 45.824C40.725 45.3973 40.725 44.7787 40.725 43.968V21.504C40.725 20.5227 40.7463 19.7973 40.789 19.328C40.8743 18.816 41.0663 18.2613 41.365 17.664C41.9623 16.512 43.6263 15.936 46.357 15.936C48.917 15.936 50.517 16.4267 51.157 17.408C51.6263 18.0907 51.861 18.7947 51.861 19.52C52.0743 19.2213 52.373 18.8587 52.757 18.432C53.1837 18.0053 54.0583 17.4293 55.381 16.704C56.7037 15.9787 57.8557 15.616 58.837 15.616C59.861 15.616 60.7143 15.68 61.397 15.808C62.0797 15.8933 62.8263 16.064 63.637 16.32Z" fill="#6C63FF"/>
<path d="M100.549 28.8C100.549 31.4027 99.8882 33.344 98.5655 34.624C97.2855 35.8613 95.8562 36.48 94.2775 36.48H79.1095C79.1095 37.6747 79.8135 38.6773 81.2215 39.488C82.6295 40.2987 84.0375 40.704 85.4455 40.704C87.9202 40.704 89.8615 40.448 91.2695 39.936L91.9735 39.68C92.9975 39.2107 93.8508 38.976 94.5335 38.976C95.8988 38.976 97.0722 39.936 98.0535 41.856C98.6082 43.008 98.8855 43.9893 98.8855 44.8C98.8855 48.5973 94.3415 50.496 85.2535 50.496C82.0962 50.496 79.2802 49.9627 76.8055 48.896C74.3735 47.7867 72.4748 46.336 71.1095 44.544C68.4215 41.088 67.0775 37.2267 67.0775 32.96C67.0775 27.584 68.8055 23.296 72.2615 20.096C75.7602 16.8533 80.1122 15.232 85.3175 15.232C91.2482 15.232 95.6002 17.3227 98.3735 21.504C99.8242 23.7227 100.549 26.1547 100.549 28.8ZM87.0455 30.656C88.6668 30.656 89.4775 29.9733 89.4775 28.608C89.4775 27.6267 89.0935 26.8373 88.3255 26.24C87.6002 25.6427 86.5335 25.344 85.1255 25.344C83.7602 25.344 82.3948 25.92 81.0295 27.072C79.6642 28.1813 78.9815 29.376 78.9815 30.656H87.0455Z" fill="#6C63FF"/>
<path d="M116.501 38.336C117.909 38.336 118.954 38.6987 119.637 39.424C120.32 40.1493 120.661 41.6427 120.661 43.904C120.661 46.1653 120.298 47.68 119.573 48.448C118.848 49.1733 117.802 49.536 116.437 49.536C112.128 49.536 109.098 48.512 107.349 46.464C105.6 44.3733 104.725 40.9173 104.725 36.096V5.568C104.725 4.58667 104.746 3.86133 104.789 3.392C104.874 2.88 105.066 2.304 105.365 1.664C105.962 0.554666 107.626 0 110.357 0C112.96 0 114.581 0.597333 115.221 1.792C115.562 2.38933 115.754 2.944 115.797 3.456C115.882 3.92533 115.925 4.65067 115.925 5.632V36.352C115.925 37.6747 116.117 38.336 116.501 38.336ZM133.205 36.352C133.205 37.1627 133.376 37.696 133.717 37.952C134.058 38.208 134.933 38.336 136.341 38.336C137.749 38.336 138.922 38.6987 139.861 39.424C140.8 40.1493 141.269 41.6427 141.269 43.904C141.269 46.1653 140.757 47.68 139.733 48.448C138.752 49.1733 137.365 49.536 135.573 49.536C126.528 49.536 122.005 45.056 122.005 36.096L121.941 5.568C121.941 4.58667 121.962 3.86133 122.005 3.392C122.09 2.88 122.304 2.304 122.645 1.664C123.285 0.554666 124.949 0 127.637 0C130.24 0 131.861 0.597333 132.501 1.792C132.97 2.73067 133.205 4.01067 133.205 5.632V36.352Z" fill="#6C63FF"/>
<path d="M143.827 32.832C143.827 27.712 145.62 23.488 149.204 20.16C152.788 16.832 156.883 15.168 161.492 15.168C166.1 15.168 170.174 16.832 173.715 20.16C177.257 23.4453 179.027 27.648 179.027 32.768C179.027 36.3093 178.11 39.4667 176.275 42.24C174.441 44.9707 172.201 46.9973 169.555 48.32C166.953 49.6 164.243 50.24 161.428 50.24C158.612 50.24 155.881 49.5573 153.236 48.192C150.59 46.784 148.35 44.736 146.516 42.048C144.723 39.3173 143.827 36.2453 143.827 32.832ZM157.204 37.44C158.569 38.464 159.955 38.976 161.363 38.976C162.771 38.976 164.179 38.4427 165.587 37.376C166.995 36.3093 167.7 34.7307 167.7 32.64C167.7 30.5493 167.038 28.992 165.715 27.968C164.393 26.944 162.964 26.432 161.428 26.432C159.892 26.432 158.462 26.9653 157.139 28.032C155.817 29.0987 155.156 30.6773 155.156 32.768C155.156 34.816 155.838 36.3733 157.204 37.44Z" fill="#6C63FF"/>
<path d="M214.202 2.752C215.184 2.752 215.909 2.79467 216.378 2.88C216.891 2.92267 217.445 3.11467 218.042 3.456C218.682 3.79733 219.131 4.37333 219.387 5.184C219.643 5.99466 219.771 7.08266 219.771 8.448C219.771 9.81333 219.643 10.9013 219.387 11.712C219.131 12.5227 218.682 13.0987 218.042 13.44C217.402 13.7387 216.827 13.9307 216.314 14.016C215.845 14.0587 215.098 14.08 214.074 14.08H194.49V20.544H207.098C208.122 20.544 208.869 20.5867 209.339 20.672C209.85 20.7147 210.426 20.9067 211.066 21.248C212.176 21.888 212.73 23.5733 212.73 26.304C212.73 29.2907 211.92 31.0613 210.299 31.616C209.616 31.8293 208.528 31.936 207.035 31.936H194.49V44.032C194.49 45.056 194.448 45.8027 194.363 46.272C194.32 46.7413 194.128 47.296 193.786 47.936C193.189 49.088 191.525 49.664 188.794 49.664C185.808 49.664 184.058 48.8533 183.546 47.232C183.29 46.5493 183.163 45.4613 183.163 43.968V8.384C183.163 6.208 183.568 4.736 184.378 3.968C185.189 3.15733 186.725 2.752 188.986 2.752H214.202Z" fill="#6C63FF"/>
<path d="M240.051 19.52C240.307 17.1307 241.992 15.936 245.107 15.936C246.771 15.936 248.008 16.064 248.818 16.32C249.629 16.576 250.184 17.024 250.482 17.664C250.824 18.304 251.016 18.88 251.059 19.392C251.144 19.8613 251.187 20.5867 251.187 21.568V43.968C251.187 44.9493 251.144 45.696 251.059 46.208C251.016 46.6773 250.845 47.232 250.546 47.872C249.949 48.9813 248.477 49.536 246.131 49.536C243.827 49.536 242.269 49.2587 241.458 48.704C240.69 48.1067 240.243 47.2533 240.115 46.144C238.536 48.4053 235.891 49.536 232.178 49.536C228.509 49.536 225.096 47.8507 221.939 44.48C218.781 41.1093 217.202 37.2053 217.202 32.768C217.202 28.288 218.781 24.384 221.939 21.056C225.139 17.6853 228.637 16 232.434 16C233.885 16 235.208 16.256 236.402 16.768C237.597 17.28 238.429 17.7707 238.898 18.24C239.368 18.6667 239.752 19.0933 240.051 19.52ZM228.402 32.832C228.402 34.24 228.957 35.52 230.066 36.672C231.176 37.7813 232.52 38.336 234.098 38.336C235.677 38.336 236.979 37.76 238.003 36.608C239.069 35.456 239.603 34.1973 239.603 32.832C239.603 31.424 239.09 30.1227 238.066 28.928C237.085 27.7333 235.741 27.136 234.035 27.136C232.37 27.136 231.005 27.7333 229.939 28.928C228.915 30.1227 228.402 31.424 228.402 32.832Z" fill="#6C63FF"/>
<path d="M276.128 32.768L284.639 39.808C285.706 40.704 286.367 41.3867 286.624 41.856C286.922 42.3253 287.072 42.7733 287.072 43.2C287.072 44.224 286.41 45.6107 285.087 47.36C283.637 49.152 282.357 50.048 281.247 50.048C280.309 50.048 279.008 49.4293 277.344 48.192L276.703 47.744C275.722 46.9333 274.208 45.5253 272.16 43.52C270.112 41.472 268.554 40.0213 267.487 39.168V44.096C267.487 45.0773 267.445 45.824 267.359 46.336C267.317 46.8053 267.125 47.36 266.784 48C266.229 49.1093 264.586 49.664 261.855 49.664C259.168 49.664 257.525 49.088 256.927 47.936C256.629 47.296 256.437 46.7413 256.352 46.272C256.309 45.76 256.288 45.0133 256.288 44.032V5.696C256.288 4.71467 256.309 3.98933 256.352 3.52C256.437 3.008 256.629 2.432 256.927 1.792C257.525 0.639999 259.189 0.0639992 261.919 0.0639992C263.967 0.0639992 265.418 0.426666 266.272 1.152C266.997 1.74933 267.381 2.688 267.423 3.968C267.466 4.352 267.487 4.94933 267.487 5.76V26.048C268.255 25.408 269.408 24.32 270.944 22.784C272.522 21.248 273.695 20.16 274.464 19.52L275.232 19.008C276.725 17.856 278.005 17.28 279.072 17.28C280.138 17.28 281.354 18.1547 282.72 19.904C284.128 21.6107 284.832 22.9547 284.832 23.936C284.832 24.9173 284.042 26.0693 282.464 27.392L276.128 32.768Z" fill="#6C63FF"/>
<path d="M321.174 28.8C321.174 31.4027 320.513 33.344 319.19 34.624C317.91 35.8613 316.481 36.48 314.902 36.48H299.734C299.734 37.6747 300.439 38.6773 301.846 39.488C303.254 40.2987 304.663 40.704 306.07 40.704C308.545 40.704 310.487 40.448 311.895 39.936L312.599 39.68C313.622 39.2107 314.476 38.976 315.159 38.976C316.524 38.976 317.697 39.936 318.678 41.856C319.233 43.008 319.51 43.9893 319.51 44.8C319.51 48.5973 314.967 50.496 305.879 50.496C302.721 50.496 299.905 49.9627 297.431 48.896C294.999 47.7867 293.1 46.336 291.734 44.544C289.047 41.088 287.703 37.2267 287.703 32.96C287.703 27.584 289.431 23.296 292.887 20.096C296.385 16.8533 300.737 15.232 305.943 15.232C311.873 15.232 316.225 17.3227 318.999 21.504C320.449 23.7227 321.174 26.1547 321.174 28.8ZM307.671 30.656C309.292 30.656 310.103 29.9733 310.103 28.608C310.103 27.6267 309.719 26.8373 308.951 26.24C308.225 25.6427 307.158 25.344 305.75 25.344C304.385 25.344 303.02 25.92 301.655 27.072C300.289 28.1813 299.607 29.376 299.607 30.656H307.671Z" fill="#6C63FF"/>
</svg>
